<?xml version="1.0" standalone="no"?>
<!DOCTYPE svg PUBLIC "-//W3C//DTD SVG 20010904//EN"
 "http://www.w3.org/TR/2001/REC-SVG-20010904/DTD/svg10.dtd">
<svg version="1.0" xmlns="http://www.w3.org/2000/svg"
 width="500.000000pt" height="500.000000pt" viewBox="0 0 500.000000 500.000000"
 preserveAspectRatio="xMidYMid meet">
<metadata>
Created by potrace 1.11, written by Peter Selinger 2001-2013
</metadata>
<g transform="translate(0.000000,500.000000) scale(0.100000,-0.100000)"
fill="#000000" stroke="none">
<path d="M3005 4285 c-227 -50 -409 -159 -623 -375 -102 -102 -159 -190 -167
-255 -4 -39 -40 -125 -51 -125 -21 0 -36 -59 -37 -147 -2 -240 41 -420 166
-703 146 -331 319 -757 323 -795 1 -16 3 -36 3 -43 1 -7 4 -11 9 -9 14 10 22
-161 10 -223 -59 -294 -393 -583 -673 -582 -165 0 -255 104 -256 295 0 146 45
343 104 452 64 118 107 214 107 237 0 34 -32 68 -63 68 -89 0 -316 -235 -401
-415 -62 -128 -88 -235 -89 -360 -2 -134 23 -217 86 -298 53 -67 69 -80 145
-117 115 -55 210 -75 367 -75 147 0 170 2 275 29 199 51 469 193 531 279 38
52 37 64 -3 36 -21 -14 -9 3 33 47 162 169 239 363 226 568 -3 50 -8 102 -11
116 -14 63 -17 80 -16 82 0 2 -13 36 -30 77 -35 86 -105 217 -159 299 -51 76
-88 150 -123 247 -48 128 -44 127 33 -7 40 -70 74 -126 76 -124 2 1 -32 77
-76 167 -142 293 -192 467 -185 636 3 98 6 114 30 187 51 154 165 302 326 421
31 24 54 46 50 50 -4 5 -1 5 7 0 7 -4 16 -3 20 2 8 12 186 88 229 98 18 4 31
9 29 12 -5 4 -45 -5 -92 -22 -16 -6 -17 -5 -5 4 37 27 185 57 260 53 123 -7
178 -101 138 -237 -6 -22 -11 -43 -10 -47 3 -11 -103 -210 -152 -285 -49 -75
-71 -100 -35 -38 16 27 18 34 6 29 -19 -7 -52 -57 -108 -160 -23 -44 -55 -97
-71 -118 -33 -47 -36 -72 -7 -81 65 -21 149 35 319 211 117 121 203 227 277
344 84 132 87 171 27 300 -56 118 -118 167 -304 241 -158 62 -334 82 -465 54z
m105 -279 c0 -2 -7 -7 -16 -10 -8 -3 -12 -2 -9 4 6 10 25 14 25 6z m-1594
-2352 c-13 -27 -27 -62 -31 -79 -5 -16 -9 -32 -10 -35 -3 -11 -25 -117 -30
-145 -15 -86 -3 -247 24 -317 17 -46 4 -32 -19 18 -28 65 -32 86 -36 194 -2
71 2 116 17 175 19 75 95 252 105 243 2 -3 -7 -27 -20 -54z"/>
<path d="M3330 4060 l-45 -7 42 -1 c23 -1 45 3 48 8 3 6 5 9 3 8 -2 0 -23 -4
-48 -8z"/>
<path d="M3415 4051 c69 -17 95 -51 90 -119 -2 -17 1 -29 6 -26 13 7 11 68 -2
98 -13 28 -65 57 -101 55 -19 -1 -18 -2 7 -8z"/>
</g>
</svg>
